<svg xmlns="http://www.w3.org/2000/svg" xmlns:xlink="http://www.w3.org/1999/xlink" width="320" height="48" viewBox="0 0 320 48">
  <defs>
    <polygon id="bluebird-day-logo-a" points="39.402 .128 39.402 34.979 .078 34.979 .078 .128"/>
    <polygon id="bluebird-day-logo-c" points="39.402 .128 39.402 34.979 .078 34.979 .078 .128"/>
  </defs>
  <g fill="none" fill-rule="evenodd">
    <path fill="#FFF" fill-rule="nonzero" d="M17.6439302,25.0885116 C16.8918372,24.5871163 16.3904419,24.4856977 15.135814,24.4856977 L11.3753488,24.4856977 L11.3753488,30.002186 L15.135814,30.002186 C16.3904419,30.002186 16.8918372,29.8517674 17.6439302,29.3503721 C18.3960233,28.8489767 18.6467209,28.0968837 18.6467209,27.2445116 C18.6467209,26.342 18.3960233,25.589907 17.6439302,25.0885116 Z M16.1386047,12.4510698 C15.3865116,11.9496744 14.8851163,11.9496744 13.6316279,11.9496744 L11.3753488,11.9496744 L11.3753488,16.9647674 L13.6316279,16.9647674 C14.8851163,16.9647674 15.3865116,16.9146279 16.1386047,16.412093 C16.8918372,15.9118372 17.1425349,15.3101628 17.1425349,14.4566512 C17.1425349,13.5541395 16.8918372,12.9524651 16.1386047,12.4510698 Z M26.1687907,36.1203488 C23.9125116,37.6245349 20.4016047,38.3766279 17.1425349,38.3766279 L0.0916744186,38.3766279 L0.0916744186,3.7757907 L14.3837209,3.7757907 C17.392093,3.7757907 20.6523023,4.02648837 23.1592791,5.02927907 C25.6673953,6.03206977 28.2746512,8.54018605 28.2746512,12.5524884 C28.2746512,16.5636512 25.6673953,19.3213256 23.4099767,20.2238372 C27.4222791,21.3280465 30.0295349,24.3364186 30.0295349,28.3475814 C30.0295349,32.3587442 28.4250698,34.6161628 26.1687907,36.1203488 L26.1687907,36.1203488 Z"/>
    <polygon fill="#FFF" fill-rule="nonzero" points="32.281 38.377 43.565 38.377 43.565 3.776 32.281 3.776"/>
    <path fill="#FFF" fill-rule="nonzero" d="M74.4018837 38.3766279L63.6207442 38.3766279 63.5204651 36.1203488C62.7683721 36.8724419 60.2613953 38.9794419 56.4997907 38.9794419 52.738186 38.9794419 50.2312093 37.6245349 48.9788605 35.8696512 47.7242326 34.1136279 47.0724186 32.1080465 47.0724186 28.3475814L47.0724186 12.8020465 58.3549535 12.8020465 58.3549535 26.342C58.3549535 28.8489767 59.2574651 29.7514884 60.7616512 29.7514884 62.2669767 29.7514884 63.1193488 28.8489767 63.1193488 26.342L63.1193488 12.8020465 74.4018837 12.8020465 74.4018837 38.3766279M94.3061395 22.3308372C94.2058605 20.5759535 92.9523721 19.3213256 91.0470698 19.3213256 89.191907 19.3213256 87.9372791 20.5759535 87.7868605 22.3308372L94.3061395 22.3308372zM104.585884 28.2473023L87.7868605 28.2473023C88.1879767 30.6038605 90.6949535 31.1052558 92.7016744 31.1052558 94.7072558 31.1052558 97.4649302 30.6038605 99.7223488 29.0996744L103.984209 34.6161628C102.730721 35.617814 99.2209535 38.9794419 91.0470698 38.9794419 82.9233256 38.9794419 76.6547442 34.4156047 76.6547442 25.6400465 76.6547442 16.8644884 83.1728837 12.3006512 91.1963488 12.3006512 99.2209535 12.3006512 104.736302 17.3157442 104.736302 25.0885116 104.736302 26.5926977 104.585884 28.2473023 104.585884 28.2473023L104.585884 28.2473023zM121.880605 21.0762093C119.725744 21.0762093 117.869442 22.5803953 117.869442 25.4896279 117.869442 28.3475814 119.725744 29.8517674 121.880605 29.8517674 123.986465 29.8517674 125.891767 28.3475814 125.891767 25.4896279 125.891767 22.5803953 123.986465 21.0762093 121.880605 21.0762093zM125.491791 38.9794419C122.232721 38.9794419 119.223209 37.8752326 117.468326 35.617814L117.618744 38.3766279 106.937884 38.3766279 106.937884 3.7757907 118.220419 3.7757907 118.220419 11.0471628C118.220419 13.0527442 118.12014 15.0594651 118.12014 15.0594651 118.12014 15.0594651 120.226 12.3006512 125.491791 12.3006512 132.763163 12.3006512 137.275721 18.1179767 137.275721 25.6400465 137.275721 33.1609767 132.763163 38.9794419 125.491791 38.9794419L125.491791 38.9794419zM139.528581 38.3766279L150.809977 38.3766279 150.809977 12.8020465 139.528581 12.8020465 139.528581 38.3766279zM145.144209 10.76C141.534163 10.76 139.126326 8.65413953 139.126326 5.39393023 139.126326 2.13486047 141.534163.0278604651 145.144209.0278604651 148.805535.0278604651 151.162093 2.13486047 151.162093 5.39393023 151.162093 8.65413953 148.805535 10.76 145.144209 10.76L145.144209 10.76zM173.877581 23.0829302L173.373907 23.0829302C172.873651 22.831093 171.620163 22.3308372 170.115977 22.3308372 168.611791 22.3308372 167.307023 23.0327907 166.606209 23.9854419 165.903116 24.8879535 165.602279 26.342 165.602279 28.3475814L165.602279 38.3766279 154.320884 38.3766279 154.320884 12.8020465 165.602279 12.8020465 165.450721 16.0622558C167.106465 13.3045814 169.112047 12.3006512 171.869721 12.3006512 173.625744 12.3006512 174.377837 12.8020465 174.377837 12.8020465L173.877581 23.0829302M190.406535 21.0762093C188.301814 21.0762093 186.394233 22.5803953 186.394233 25.4896279 186.394233 28.3475814 188.301814 29.8517674 190.406535 29.8517674 192.563674 29.8517674 194.417698 28.3475814 194.417698 25.4896279 194.417698 22.5803953 192.563674 21.0762093 190.406535 21.0762093zM205.350395 38.3766279L194.669535 38.3766279 194.821093 35.617814C193.06507 37.8752326 190.055558 38.9794419 186.797628 38.9794419 179.526256 38.9794419 175.012558 33.1609767 175.012558 25.6400465 175.012558 18.1179767 179.526256 12.3006512 186.797628 12.3006512 192.06114 12.3006512 194.16814 15.0594651 194.16814 15.0594651 194.16814 15.0594651 194.06786 13.0527442 194.06786 11.0471628L194.06786 3.7757907 205.350395 3.7757907 205.350395 38.3766279 205.350395 38.3766279zM237.888674 14.8076279C236.885884 13.8048372 235.13214 13.0527442 232.622884 13.0527442L230.014488 13.0527442 230.014488 28.8489767 232.622884 28.8489767C235.13214 28.8489767 236.885884 28.0968837 237.888674 27.094093 238.890326 26.0901628 239.894256 24.5871163 239.894256 21.0762093 239.894256 17.5664419 238.941605 15.8115581 237.888674 14.8076279zM245.561163 34.6161628C242.303233 37.1231395 237.789535 38.3766279 231.770512 38.3766279L218.733093 38.3766279 218.733093 3.7757907 231.770512 3.7757907C237.789535 3.7757907 242.303233 5.02927907 245.561163 7.53625581 248.821372 10.0432326 251.327209 14.0555349 251.327209 21.0762093 251.327209 28.0968837 248.821372 32.1080465 245.561163 34.6161628L245.561163 34.6161628zM268.471512 27.9464651L266.215233 28.0968837C265.010744 28.1470233 263.709395 28.5982791 263.709395 30.1024651 263.709395 31.6066512 264.961744 32.1080465 266.215233 32.1080465 267.46986 32.1080465 268.220814 31.3559535 268.471512 31.1052558L268.471512 27.9464651zM279.656047 38.3766279L268.972907 38.3766279 268.723349 36.1203488C267.46986 37.3738372 265.46314 38.9794419 262.20407 38.9794419 257.439674 38.9794419 252.424581 36.8724419 252.424581 30.6038605 252.424581 24.3364186 258.743302 22.8812326 262.453628 22.730814L268.371233 22.4801163 268.371233 22.2305581C268.371233 20.8255116 267.219163 19.8227209 264.209651 19.8227209 261.201279 19.8227209 257.942209 21.0762093 256.186186 22.079L253.428512 14.959186C255.934349 13.8048372 260.448047 12.3006512 265.713837 12.3006512 270.980767 12.3006512 273.98914 13.3045814 276.244279 15.3101628 278.500558 17.3157442 279.656047 20.0734186 279.656047 24.3364186L279.656047 38.3766279 279.656047 38.3766279z"/>
    <g transform="translate(280.326 12.674)">
      <mask id="bluebird-day-logo-b" fill="#fff">
        <use xlink:href="#bluebird-day-logo-a"/>
      </mask>
      <path fill="#FFF" fill-rule="nonzero" d="M31.6716047,0.127627907 L21.1388837,26.2036047 C19.2347209,30.9668605 17.1288605,34.9791628 11.3593953,34.9791628 C5.59334884,34.9791628 2.0835814,33.4749767 2.0835814,33.4749767 L4.33986047,25.4515116 C4.84125581,25.7022093 6.59727907,26.2036047 7.84962791,26.2036047 C9.10539535,26.2036047 9.85748837,25.952907 10.1070465,24.6994186 L0.078,0.127627907 L11.8630698,0.127627907 L15.9733721,13.4157442 L20.136093,0.127627907 L31.6716047,0.127627907" mask="url(#bluebird-day-logo-b)"/>
      <mask id="bluebird-day-logo-d" fill="#fff">
        <use xlink:href="#bluebird-day-logo-c"/>
      </mask>
      <path fill="#FFF" fill-rule="nonzero" d="M33.285186,26.2537442 C29.6238605,26.2537442 27.1157442,24.3484419 27.1157442,20.8386744 C27.1157442,17.3277674 29.6238605,15.3723256 33.285186,15.3723256 C36.8952326,15.3723256 39.4033488,17.3277674 39.4033488,20.8386744 C39.4033488,24.3484419 36.8952326,26.2537442 33.285186,26.2537442" mask="url(#bluebird-day-logo-d)"/>
    </g>
  </g>
</svg>
