<svg xmlns="http://www.w3.org/2000/svg" width="288" height="38" viewBox="0 0 288 38">
  <path fill="#FFF" d="M22.3171603,25.5630602 C22.3171603,23.2622681 20.2261204,21.7972739 16.8817968,21.8495951 L9.56449729,21.8495951 L9.56449729,29.5381313 L16.8817968,29.5381313 C20.2261204,29.5381313 22.3171603,28.0744787 22.3171603,25.5630602 Z M21.1670883,11.2297288 C21.1670883,9.03357907 19.5478728,7.72554854 16.8817968,7.77786977 L9.56449729,7.77786977 L9.56449729,14.8922142 L16.8817968,14.8922142 C19.5478728,14.8922142 21.1670883,13.5318625 21.1670883,11.2297288 Z M30.9936358,9.5554497 C30.9936358,13.3748988 28.5366638,16.4618509 24.6695803,17.5082754 C29.3208038,18.4487157 32.1959838,22.0588799 32.1959838,26.7664483 C32.1959838,33.0436532 26.7070039,36.9664032 18.0841448,36.9664032 L0.000670205132,36.9664032 L0.000670205132,0.297276744 L17.4045568,0.297276744 C25.7151003,0.297276744 30.9936358,3.90609942 30.9936358,9.5554497 Z M52.7322751,18.6586714 C52.7322751,24.621949 57.3834987,29.2248749 62.8188622,29.2248749 C68.3078421,29.2248749 72.6976857,24.621949 72.6976857,18.6586714 C72.6976857,12.6953937 68.3078421,8.19711032 62.8188622,8.19711032 C57.3312227,8.19711032 52.7322751,12.6953937 52.7322751,18.6586714 Z M82.5242332,18.6050085 C82.5242332,29.3295173 74.0568616,37.3856437 62.7156507,37.3856437 C51.3730992,37.3856437 42.9057276,29.3295173 42.9057276,18.6050085 C42.9057276,7.93416265 51.3730992,0.0363414244 62.7156507,0.0363414244 C74.0568616,0.0363414244 82.5242332,7.98648386 82.5242332,18.6050085 Z M104.68041,0.297276744 L104.68041,28.8069759 L120.203701,28.8069759 L120.203701,36.9664032 L95.1152428,36.9664032 L95.1152428,0.297276744 L104.68041,0.297276744 Z M157.88384,18.7104559 C157.88384,12.3809298 153.754036,8.09193125 147.95274,8.09193125 L141.942341,8.09193125 L141.942341,29.2243382 L148.423224,29.2243382 C153.96448,29.2243382 157.88384,24.9876609 157.88384,18.7104559 Z M167.658111,18.6058135 C167.658111,29.5382656 159.661224,36.9665374 147.797252,36.9665374 L132.378513,36.9665374 L132.378513,0.297410901 L148.163184,0.297410901 C159.765776,0.297410901 167.658111,7.7256827 167.658111,18.6058135 Z M189.814825,0.297276744 L189.814825,28.8069759 L205.336775,28.8069759 L205.336775,36.9664032 L180.249657,36.9664032 L180.249657,0.297276744 L189.814825,0.297276744 Z M236.746205,25.2492671 L236.746205,36.9665374 L227.181038,36.9665374 L227.181038,25.510873 L213.697852,0.297410901 L223.260339,0.297410901 L231.936814,16.0434153 L240.404186,0.297410901 L249.969353,0.297410901 L236.746205,25.2492671 Z M278.543686,7.39365931 C279.685715,7.39365931 280.792895,7.45134681 281.890691,7.3762189 C282.925488,7.30511569 283.586309,6.48944129 283.625181,5.43094272 C283.673436,4.15779302 283.142634,3.27772326 282.063604,3.14893256 C280.90817,3.00940931 279.731289,3.04294854 278.543686,3.00001832 L278.543686,7.39365931 Z M287.721475,14.5402015 C286.407873,14.5402015 285.096953,14.5281273 283.78335,14.5456835 C283.493821,14.5495924 283.346376,14.4489747 283.220378,14.2034674 C282.642661,13.0738657 282.043497,11.9549965 281.465781,10.8267363 C281.346484,10.5946448 281.211103,10.4967102 280.934978,10.503418 C280.145477,10.5275663 279.355974,10.512809 278.532962,10.512809 L278.532962,14.5066622 L274.683305,14.5066622 L274.683305,13.9968657 L274.683305,0.491282849 C274.683305,0.327611338 274.673923,0.163939826 274.669901,0.000268313953 L282.468407,0.000268313953 C282.542129,0.0270997093 282.614513,0.0700299418 282.692255,0.0794209302 C284.736381,0.354442733 287.027143,1.41830756 287.276459,4.61929302 C287.395756,6.16209826 287.084781,7.61770145 285.997707,8.79694129 C285.64384,9.18197181 285.193461,9.4798003 284.755147,9.84336569 C285.733647,11.367389 286.72689,12.9128773 287.721475,14.4583657 L287.721475,14.5402015 Z M272.782871,-8.2067686e-13 C271.293675,2.15992733 269.813863,4.32790407 268.309922,6.47709884 C267.771078,7.24984302 267.147786,7.96355813 266.60224,8.73093604 C265.311425,10.5460799 264.040715,12.3746395 262.772687,14.2058823 C262.618541,14.4285829 262.469755,14.53725 262.182907,14.5346154 C260.858581,14.5171265 259.531576,14.5265174 258.095996,14.5265174 C259.84121,12.0204651 261.542191,9.576125 263.253894,7.11836918 C262.312927,5.72850291 261.381342,4.34802761 260.448415,2.9688939 C259.835849,2.06467588 259.220601,1.16045785 258.610713,0.253556686 C258.559778,0.17842878 258.536991,0.0845188953 258.500801,-8.2067686e-13 L262.932197,-8.2067686e-13 C262.956323,0.0617122093 262.968387,0.130132267 263.003237,0.183795058 C263.816866,1.42608866 264.631837,2.66704069 265.449487,3.90665116 C265.482997,3.95628924 265.537954,3.99117006 265.602294,4.04885756 C266.500368,2.68313953 267.385039,1.34156977 268.268369,-8.2067686e-13 L272.782871,-8.2067686e-13 Z M273.933479,14.5266516 L273.075616,14.5266516 C271.941629,14.5266516 270.804961,14.5320179 269.669634,14.5199437 C269.526211,14.5186022 269.33185,14.4622562 269.247405,14.3602969 C268.258183,13.1743493 267.283704,11.9749859 266.275716,10.7420833 C267.082643,9.7117577 267.888229,8.68411526 268.71124,7.63366614 C270.447072,9.92506729 272.161457,12.1869539 273.933479,14.5266516 Z"/>
</svg>
