<?xml version="1.0" encoding="UTF-8"?>
<svg width="254px" height="66px" viewBox="0 0 254 66" version="1.1" xmlns="http://www.w3.org/2000/svg" xmlns:xlink="http://www.w3.org/1999/xlink">
    <!-- Generator: Sketch 52.6 (67491) - http://www.bohemiancoding.com/sketch -->
    <title>Esites_Logo2020_CMYK</title>
    <desc>Created with Sketch.</desc>
    <g id="Page-1" stroke="none" stroke-width="1" fill="none" fill-rule="evenodd">
        <g id="Esites_Logo2020_CMYK" fill="#FFFFFF">
            <g id="g10" transform="translate(127.000000, 33.000000) scale(-1, 1) rotate(-180.000000) translate(-127.000000, -33.000000) ">
                <g id="g12">
                    <path d="M83.5338028,25.6477784 C80.9303923,26.5135378 78.071193,27.3037541 74.9608556,28.0207459 C72.0879725,28.6770892 69.7832803,29.3940811 68.048031,30.1693135 C66.3117085,30.9433865 65.444531,31.9896649 65.444531,33.3027973 C65.444531,34.5573324 66.0283732,35.5994189 67.1951634,36.4369054 C68.3616852,37.2710027 70.0233282,37.6893892 72.1771408,37.6893892 C76.4864655,37.6893892 78.9701204,36.0467027 79.629,32.7665919 L90.4919718,32.7665919 C89.8918521,37.0623 88.0217324,40.4347216 84.8809866,42.8826081 C81.7384521,45.3293351 77.5331423,46.5529216 72.2675613,46.5529216 C66.5806444,46.5529216 62.1678415,45.2095541 59.0257542,42.5247811 C55.8832197,39.8383135 54.3128021,36.5257378 54.3128021,32.5867865 C54.3128021,30.4375946 54.8204444,28.6317811 55.8388592,27.1713081 C56.8562007,25.7063757 58.1869282,24.5148081 59.8338141,23.589827 C61.4789113,22.6637757 63.2896451,21.9018324 65.2649423,21.3068514 C67.2398817,20.7103541 69.1848599,20.2027784 71.1006817,19.785373 C74.0926944,19.1279595 76.4267218,18.4555622 78.1016014,17.7709459 C79.7774648,17.0835649 80.6152176,15.785773 80.6152176,13.8755189 C80.6152176,12.5621189 80.0321803,11.3995378 78.8653007,10.3856351 C77.6987789,9.37012703 75.8587099,8.86213216 73.3442887,8.86213216 C70.8306725,8.86213216 68.7798908,9.47394324 67.1951634,10.6981541 C65.6087366,11.9203135 64.6371866,13.3982676 64.2776514,15.1301432 L52.6970401,15.1301432 C53.0562176,12.144 54.1329451,9.51889459 55.9286535,7.25115243 C57.724362,4.98205459 60.1167915,3.20802811 63.1105035,1.92488108 C66.1027845,0.641743865 69.5739986,0 73.524593,0 C77.3539113,0 80.6746035,0.627111486 83.4880113,1.87959081 C86.3004352,3.13207459 88.4548739,4.86360243 89.952669,7.0713827 C91.4471549,9.27844054 92.1662254,11.7572757 92.1071972,14.5026081 C92.1071972,17.6653459 91.3282042,20.0982486 89.7729014,21.8001568 C88.215631,23.4993 86.1368556,24.7820189 83.5338028,25.6477784" id="path14"></path>
                    <polyline id="path16" points="102.699176 1.07410541 114.189099 1.07410541 114.189099 45.4784595 102.699176 45.4784595 102.699176 1.07410541"></polyline>
                    <path d="M108.44369,65.5314 C106.34819,65.5314 104.628324,64.9196514 103.283197,63.6971351 C101.935387,62.4728351 101.262824,60.9061378 101.262824,58.9962405 C101.262824,57.0863432 101.935387,55.506 103.283197,54.2517324 C104.628324,52.9992486 106.34819,52.3721595 108.44369,52.3721595 C110.53919,52.3721595 112.260845,52.9992486 113.605972,54.2517324 C114.952887,55.506 115.626345,57.0863432 115.626345,58.9962405 C115.626345,60.9061378 114.952887,62.4728351 113.605972,63.6971351 C112.260845,64.9196514 110.53919,65.5314 108.44369,65.5314" id="path18"></path>
                    <path d="M142.110317,55.652627 L130.6195,55.652627 L130.6195,45.4784595 L122.988768,45.4784595 L122.988768,35.8986486 L130.6195,35.8986486 L130.6195,16.5616297 C130.6195,10.7723595 132.025444,6.74388892 134.83912,4.47513892 C137.651007,2.20812811 141.392141,1.07410541 146.059838,1.07410541 L153.870338,1.07410541 L153.870338,10.8322946 L148.304697,10.8322946 C146.028535,10.8322946 144.428514,11.2340027 143.501056,12.0416108 C142.572704,12.8470784 142.110317,14.3225351 142.110317,16.4714595 L142.110317,35.8986486 L154.139542,35.8986486 L154.139542,45.4784595 L142.110317,45.4784595 L142.110317,55.652627" id="path20"></path>
                    <path d="M251.184535,21.8001568 C249.626549,23.4993 247.548042,24.7820189 244.944542,25.6477784 C242.341937,26.5135378 239.481754,27.3037541 236.372042,28.0207459 C233.498444,28.6770892 231.194556,29.3940811 229.458592,30.1693135 C227.722627,30.9433865 226.855986,31.9896649 226.855986,33.3027973 C226.855986,34.5573324 227.440007,35.5994189 228.606261,36.4369054 C229.772514,37.2710027 231.433352,37.6893892 233.588775,37.6893892 C237.897831,37.6893892 240.380592,36.0467027 241.040634,32.7665919 L251.902711,32.7665919 C251.303486,37.0623 249.434261,40.4347216 246.292352,42.8826081 C243.148655,45.3293351 238.944239,46.5529216 233.677317,46.5529216 C227.992725,46.5529216 223.578134,45.2095541 220.436225,42.5247811 C217.295211,39.8383135 215.72381,36.5257378 215.72381,32.5867865 C215.72381,30.4375946 216.230915,28.6317811 217.249599,27.1713081 C218.266493,25.7063757 219.598204,24.5148081 221.245627,23.589827 C222.891261,22.6637757 224.701458,21.9018324 226.675324,21.3068514 C228.651873,20.7103541 230.595331,20.2027784 232.511063,19.785373 C235.503613,19.1279595 237.837014,18.4555622 239.514845,17.7709459 C241.189099,17.0835649 242.028014,15.785773 242.028014,13.8755189 C242.028014,12.5621189 241.443099,11.3995378 240.275951,10.3856351 C239.109697,9.37012703 237.269092,8.86213216 234.755028,8.86213216 C232.242754,8.86213216 230.191077,9.47394324 228.606261,10.6981541 C227.019655,11.9203135 226.046585,13.3982676 225.687944,15.1301432 L214.106796,15.1301432 C214.466331,12.144 215.544042,9.51889459 217.339035,7.25115243 C219.134028,4.98205459 221.528246,3.20802811 224.52169,1.92488108 C227.514239,0.641743865 230.98438,0 234.934796,0 C238.764472,0 242.086148,0.627111486 244.89893,1.87959081 C247.7135,3.13207459 249.868028,4.86360243 251.363408,7.0713827 C252.857894,9.27844054 253.576965,11.7572757 253.517937,14.5026081 C253.517937,17.6653459 252.740732,20.0982486 251.184535,21.8001568" id="path22"></path>
                    <path d="M34.742281,43.6884324 C31.3901965,45.5961892 27.5300225,46.5529216 23.1616697,46.5529216 C18.4934359,46.5529216 14.438469,45.5526649 10.9972162,43.5535784 C7.55565035,41.5530649 4.86206979,38.7638514 2.91752092,35.182727 C0.971925634,31.6011568 0,27.5128135 0,22.9174297 C0,18.3813568 0.987997394,14.3817568 2.96293683,10.921127 C4.93822507,7.4598373 7.66010338,4.77301297 11.1324444,2.86450703 C14.6025852,0.954600811 18.5832303,0 23.0722331,0 C26.6632923,0 29.8795225,0.65777027 32.7222655,1.96843216 C35.564293,3.28188568 37.958869,5.08761892 39.904831,7.38597973 C41.8486465,9.68264595 43.2405486,12.2328324 44.0792852,15.039527 L32.4078063,15.039527 C31.6301549,13.3679432 30.4476239,12.0091459 28.8628965,10.9667919 C27.2763803,9.92122703 25.3164662,9.39973784 22.982081,9.39973784 C19.8699549,9.39973784 17.2211106,10.3856351 15.0368894,12.3541297 C12.8519528,14.3225351 11.6397289,17.0382568 11.4013803,20.5012946 C11.4013803,20.5012946 10.9797761,24.5173054 11.5866035,27.6835216 C12.1930732,30.8503622 13.5611852,33.2912919 15.7107944,34.8702081 C17.8649648,36.4505514 20.3479042,37.2421054 23.1616697,37.2421054 C26.0934915,37.2421054 28.5484373,36.3762568 30.523019,34.6461649 C32.4983162,32.9146459 33.5757592,30.5856486 33.7553479,27.6625622 L17.751738,27.6625622 C17.1512606,24.4992 17.5697345,20.5012946 17.5697345,20.5012946 L33.8950479,20.5012946 L34.8841275,20.5012946 L45.245807,20.5012946 C45.3045669,21.2747432 45.349643,22.0231297 45.3806775,22.7397649 C45.4103704,23.4556865 45.4257535,24.1403027 45.4257535,24.7970027 C45.4257535,28.8558243 44.4828232,32.5414784 42.5980359,35.8551243 C40.7125331,39.1669865 38.0937394,41.7763946 34.742281,43.6884324" id="path24"></path>
                    <path d="M196.154183,43.6884324 C192.802099,45.5961892 188.942014,46.5529216 184.57393,46.5529216 C179.904444,46.5529216 175.850282,45.5526649 172.408761,43.5535784 C168.968134,41.5530649 166.274303,38.7638514 164.329056,35.182727 C162.38381,31.6011568 161.411634,27.5128135 161.411634,22.9174297 C161.411634,18.3813568 162.399908,14.3817568 164.374669,10.921127 C166.350324,7.4598373 169.07188,4.77301297 172.544704,2.86450703 C176.014845,0.954600811 179.995669,0 184.483599,0 C188.075373,0 191.291514,0.65777027 194.13381,1.96843216 C196.976106,3.28188568 199.371218,5.08761892 201.317359,7.38597973 C203.259923,9.68264595 204.652451,12.2328324 205.491366,15.039527 L193.819887,15.039527 C193.041789,13.3679432 191.858542,12.0091459 190.27462,10.9667919 C188.688014,9.92122703 186.727563,9.39973784 184.394162,9.39973784 C181.281768,9.39973784 178.632655,10.3856351 176.448613,12.3541297 C174.26457,14.3225351 173.05181,17.0382568 172.813014,20.5012946 C172.813014,20.5012946 172.391768,24.5173054 172.999042,27.6835216 C173.604528,30.8503622 174.972908,33.2912919 177.12207,34.8702081 C179.276599,36.4505514 181.759359,37.2421054 184.57393,37.2421054 C187.504768,37.2421054 189.959803,36.3762568 191.934563,34.6461649 C193.910218,32.9146459 194.987035,30.5856486 195.167697,27.6625622 L179.163908,27.6625622 C178.562894,24.4992 178.981458,20.5012946 178.981458,20.5012946 L195.307218,20.5012946 L196.295493,20.5012946 L206.65762,20.5012946 C206.716648,21.2747432 206.761366,22.0231297 206.792669,22.7397649 C206.822183,23.4556865 206.836493,24.1403027 206.836493,24.7970027 C206.836493,28.8558243 205.894725,32.5414784 204.009401,35.8551243 C202.124077,39.1669865 199.505373,41.7763946 196.154183,43.6884324" id="path26"></path>
                </g>
            </g>
        </g>
    </g>
</svg>