<?xml version="1.0" encoding="UTF-8"?>
<svg width="291px" height="64px" viewBox="0 0 291 64" version="1.1" xmlns="http://www.w3.org/2000/svg" xmlns:xlink="http://www.w3.org/1999/xlink">
    <!-- Generator: Sketch 52.6 (67491) - http://www.bohemiancoding.com/sketch -->
    <title>Featly_Logo-RGB</title>
    <desc>Created with Sketch.</desc>
    <g id="Page-1" stroke="none" stroke-width="1" fill="none" fill-rule="evenodd">
        <g id="Featly_Logo-RGB" fill="#FFFFFF">
            <polygon id="Path" points="0 49 7.62011173 49 7.62011173 32.2510638 28.9217877 32.2510638 28.9217877 27.5404255 7.62011173 27.5404255 7.62011173 14.4553191 31 14.4553191 31 8 0 8"></polygon>
            <path d="M56.7586207,13 C50.2068966,13 44.3448276,14.8947368 40.2068966,18.3397129 C36.2413793,21.6124402 34,26.2631579 34,31.0861244 C34,40.0430622 41.7586207,49 56.5862069,49 C66.0689655,49 73.6551724,45.2105263 76.7586207,38.8373206 L77.1034483,37.9760766 L71.0689655,37.1148325 L70.8965517,37.4593301 C69.1724138,40.0430622 65.2068966,44.1770335 56.7586207,44.1770335 C47.7931034,44.1770335 43.137931,39.1818182 42.2758621,33.8421053 C42.2758621,33.8421053 78.8275862,33.8421053 78.8275862,33.8421053 C79,33.15311 79,31.7751196 79,31.0861244 C79,26.2631579 77.4482759,22.1291866 74.3448276,19.0287081 C70.2068966,15.0669856 64.1724138,13 56.7586207,13 Z M45.3793103,21.9569378 C48.137931,19.2009569 51.9310345,17.8229665 56.5862069,17.8229665 C65.0344828,17.8229665 70.7241379,22.645933 71.0689655,29.8803828 L41.9310345,29.8803828 C42.1034483,26.9521531 43.3103448,24.1961722 45.3793103,21.9569378 Z" id="Shape" fill-rule="nonzero"></path>
            <path d="M115.828125,14 L93.828125,14 L93.828125,19.920398 L112.5625,19.920398 C113.25,19.920398 119.4375,20.4427861 119.4375,28.9751244 C119.4375,29.1492537 119.4375,29.6716418 119.4375,30.1940299 C119.4375,31.0646766 119.4375,32.1094527 119.4375,33.1542289 C116,30.8905473 108.09375,26.5373134 99.671875,26.5373134 C91.59375,26.5373134 83,30.5422886 83,38.0298507 C83,41.6865672 84.890625,44.6467662 88.5,46.5621891 C91.25,48.1293532 95.203125,49 98.8125,49 C105.515625,49 114.109375,45.6915423 119.4375,42.3830846 L119.4375,48.3034826 L127,48.3034826 L127,28.6268657 C127,24.2736318 125.796875,20.7910448 123.734375,18.1791045 C121.671875,15.9154229 118.921875,14.3482587 115.828125,14 Z M101.046875,44.8208955 C97.4375,44.8208955 90.5625,43.4278607 90.5625,38.0298507 C90.5625,33.3283582 96.234375,31.238806 101.390625,31.238806 C108.78125,31.238806 116.171875,35.7661692 119.265625,38.0298507 C115.3125,40.641791 107.921875,44.8208955 101.046875,44.8208955 Z" id="Shape" fill-rule="nonzero"></path>
            <path d="M149.477064,33.8417266 L149.477064,19.1654676 L163.944954,19.1654676 L165.862385,13.6402878 L149.651376,13.6402878 L149.651376,0 L141.981651,0 L141.981651,13.6402878 L131.174312,13.6402878 L131,19.1654676 L141.981651,19.1654676 L141.981651,33.4964029 C141.981651,42.647482 146.862385,48 155.229358,48 L169,48 L169,42.4748201 L157.146789,42.4748201 C151.743119,42.4748201 149.477064,40.057554 149.477064,33.8417266 Z" id="Path"></path>
            <rect id="Rectangle" x="176" y="0" width="8" height="48"></rect>
            <path d="M221.21519,14.1736111 L209.105485,43.3402778 L196.130802,14.1736111 L188,14.1736111 L202.35865,44.9027778 C203.050633,46.8125 204.953586,48.2013889 207.029536,48.5486111 L200.801688,64 L208.413502,64 L229,14 L221.21519,14 L221.21519,14.1736111 Z" id="Path"></path>
            <g id="Group" transform="translate(243.000000, 14.000000)">
                <polygon id="Path" points="0.875 11.6222222 0.875 0.0666666667 2.1 0.0666666667 5.425 6.28888889 6.475 8.42222222 7.525 6.28888889 10.85 0.0666666667 12.075 0.0666666667 12.075 11.6222222 11.025 11.6222222 11.025 4.33333333 11.2 1.84444444 10.15 4.15555556 7.35 9.48888889 6.3 9.48888889 3.5 4.15555556 2.45 1.84444444 2.625 4.33333333 2.625 11.6222222"></polygon>
                <path d="M15.225,7.53333333 C15.225,4.86666667 16.8,3.26666667 18.9,3.26666667 C21.175,3.26666667 22.575,4.68888889 22.575,7.17777778 C22.575,7.35555556 22.575,7.53333333 22.575,7.71111111 L16.45,7.71111111 C16.45,9.84444444 17.675,10.7333333 19.25,10.7333333 C20.825,10.7333333 21.525,9.84444444 21.875,8.95555556 L22.575,9.84444444 C22.05,10.9111111 21,11.6222222 19.25,11.6222222 C16.8,11.8 15.225,10.2 15.225,7.53333333 Z M16.275,6.82222222 L21.525,6.82222222 C21.35,5.04444444 20.475,3.97777778 18.9,3.97777778 C17.325,3.97777778 16.45,5.04444444 16.275,6.82222222 Z" id="Shape" fill-rule="nonzero"></path>
                <path d="M25.375,7.53333333 C25.375,4.86666667 26.6,3.26666667 28.7,3.26666667 C30.275,3.26666667 31.15,4.33333333 31.5,5.75555556 L31.5,0.244444444 L32.55,0.244444444 L32.55,11.8 L31.5,11.8 L31.5,9.48888889 C31.325,10.7333333 30.45,11.9777778 28.7,11.9777778 C26.6,11.8 25.375,10.0222222 25.375,7.53333333 Z M29.05,10.7333333 C30.625,10.7333333 31.5,9.48888889 31.5,8.06666667 L31.5,6.46666667 C31.5,5.04444444 30.8,3.97777778 29.05,3.97777778 C27.65,3.97777778 26.425,5.04444444 26.425,7.35555556 C26.425,9.84444444 27.65,10.7333333 29.05,10.7333333 Z" id="Shape" fill-rule="nonzero"></path>
                <path d="M36.225,1.84444444 L36.225,0.0666666667 L37.275,0.0666666667 L37.275,1.84444444 L36.225,1.84444444 Z M36.225,11.6222222 L36.225,3.44444444 L37.275,3.44444444 L37.275,11.6222222 L36.225,11.6222222 Z" id="Shape" fill-rule="nonzero"></path>
                <path d="M40.425,9.84444444 C40.425,8.77777778 41.3,8.06666667 42.35,7.53333333 L45.5,6.11111111 C45.5,4.86666667 44.975,4.15555556 43.575,4.15555556 C42.35,4.15555556 41.475,4.86666667 41.125,5.75555556 L40.425,5.04444444 C40.95,4.15555556 42.175,3.26666667 43.75,3.26666667 C45.675,3.26666667 46.55,4.33333333 46.55,6.28888889 L46.55,10.2 C46.55,10.5555556 46.725,10.7333333 47.075,10.7333333 L47.6,10.7333333 L47.6,11.8 L46.9,11.8 C46.025,11.8 45.5,11.4444444 45.5,10.3777778 L45.5,9.48888889 C45.15,10.7333333 44.1,11.9777778 42.525,11.9777778 C41.125,11.8 40.425,10.9111111 40.425,9.84444444 Z M42.875,10.7333333 C44.45,10.7333333 45.5,9.48888889 45.5,8.42222222 L45.5,7 L42.875,8.24444444 C42,8.6 41.65,9.13333333 41.65,9.66666667 C41.475,10.3777778 42,10.7333333 42.875,10.7333333 Z" id="Shape" fill-rule="nonzero"></path>
                <rect id="Rectangle" x="0.7" y="14.2888889" width="46.9" height="1"></rect>
            </g>
        </g>
    </g>
</svg>