<svg xmlns="http://www.w3.org/2000/svg" width="277" height="45" fill="#FFFFFF" viewBox="0 0 277 45">
  <path d="M27.090622,0.087998603 L0.553099808,0.087998603 C0.246969864,0.087998603 0.000939048911,0.335396944 0.000939048911,0.639022181 L0.000939048911,35.422854 C0.000939048911,35.7264792 0.246969864,35.9720034 0.553099808,35.9720034 L8.21949511,35.9720034 C8.52562505,35.9720034 8.77353397,35.7264792 8.77353397,35.422854 L8.77353397,22.5094103 L24.8500514,22.5094103 C25.1561812,22.5094103 25.4022121,22.2601378 25.4022121,21.9565125 L25.4022121,15.0012455 C25.4022121,14.6976203 25.1561812,14.4483477 24.8500514,14.4483477 L8.77353397,14.4483477 L8.77353397,8.14718697 L27.090622,8.14718697 C27.396752,8.14718697 27.6427828,7.89978863 27.6427828,7.5961634 L27.6427828,0.639022181 C27.6427828,0.335396944 27.396752,0.087998603 27.090622,0.087998603" transform="translate(0 .829)"/>
  <path d="M9.18089338,0.087998603 L1.21400243,0.087998603 C0.909750584,0.087998603 0.661841673,0.335396944 0.661841673,0.639022181 L0.661841673,7.74047909 C0.661841673,8.04410433 0.909750584,8.29150267 1.21400243,8.29150267 L9.18089338,8.29150267 C9.48702333,8.29150267 9.73305415,8.04410433 9.73305415,7.74047909 L9.73305415,0.639022181 C9.73305415,0.335396944 9.48702333,0.087998603 9.18089338,0.087998603" transform="translate(30.05 .829)"/>
  <path d="M39.0304411 11.6696146L31.463585 11.6696146C31.157455 11.6696146 30.9114243 11.9170129 30.9114243 12.2206381L30.9114243 36.2501391C30.9114243 36.5537643 31.157455 36.8011626 31.463585 36.8011626L39.0304411 36.8011626C39.3365711 36.8011626 39.5826018 36.5537643 39.5826018 36.2501391L39.5826018 12.2206381C39.5826018 11.9170129 39.3365711 11.6696146 39.0304411 11.6696146M59.8390137 8.56907612C56.4020948 8.56907612 54.1652802 10.1659199 52.5726533 11.8845887L52.5726533 9.61864483C52.5726533 9.31314537 52.3266224 9.06762125 52.0204925 9.06762125L44.4536363 9.06762125C44.1493844 9.06762125 43.9014756 9.31314537 43.9014756 9.61864483L43.9014756 36.251451C43.9014756 36.5550762 44.1493844 36.8006004 44.4536363 36.8006004L52.0204925 36.8006004C52.3266224 36.8006004 52.5726533 36.5550762 52.5726533 36.251451L52.5726533 21.394431C52.5726533 18.2588445 54.0563506 16.5289304 56.7514208 16.5289304 60.0812884 16.5289304 60.7799408 19.1753428 60.7799408 21.394431L60.7799408 36.251451C60.7799408 36.5550762 61.0278497 36.8006004 61.3321015 36.8006004L68.9008357 36.8006004C69.2050876 36.8006004 69.4529965 36.5550762 69.4529965 36.251451L69.4529965 19.0085363C69.4529965 12.5705569 65.7681685 8.56907612 59.8390137 8.56907612M86.8156353 27.2527112C83.3298856 27.2527112 80.8958708 24.9455343 80.8958708 21.5438071 80.8958708 18.2920184 83.3843505 15.932363 86.8156353 15.932363 90.2750913 15.932363 92.7861082 18.2920184 92.7861082 21.6431413 92.7861082 24.8930558 90.2750913 27.2527112 86.8156353 27.2527112M100.807464 9.06705898L93.2387297 9.06705898C92.9325999 9.06705898 92.686569 9.31445732 92.686569 9.61808256L92.686569 11.741585C90.902376 10.0491554 88.4927765 8.56851384 84.623895 8.56851384 78.461856 8.56851384 72.2209371 13.0254324 72.2209371 21.6431413 72.2209371 30.1596417 78.461856 34.6165603 84.623895 34.6165603 87.9218348 34.6165603 90.4309736 33.5744886 92.7842301 31.1792228 92.7372776 35.6511353 90.4910726 37.737153 85.7207042 37.737153 82.5373283 37.737153 79.9230162 37.0305684 76.9800369 35.371875 76.8429357 35.2969058 76.6851755 35.2800378 76.5368058 35.330642 76.3903142 35.3774977 76.2701159 35.486203 76.2062607 35.624896L73.6163638 41.2888187C73.4961655 41.5549592 73.6013389 41.8679557 73.8605164 42.0047744 77.3857061 43.8677589 81.5569614 44.8536039 85.9197825 44.8536039 91.3981939 44.8536039 95.2896126 43.6297318 97.811898 41.1145152 100.165154 38.764231 101.359625 35.10386 101.359625 30.2402337L101.359625 9.61808256C101.359625 9.31445732 101.111716 9.06705898 100.807464 9.06705898M112.876872 20.2976317C113.57928 17.3869528 115.410426 15.733882 117.974029 15.733882 120.543267 15.733882 122.368778 17.4263116 122.94911 20.2976317L112.876872 20.2976317zM117.974029 8.56870127C110.138605 8.56870127 104.228231 14.7649052 104.228231 23.0827372 104.228231 31.3780785 110.322659 37.3981049 118.721512 37.3981049 123.467465 37.3981049 127.280004 35.6569453 130.055833 32.2252305 130.241764 31.9947002 130.213593 31.659213 129.991977 31.4642932L125.659206 27.63899C125.445102 27.451567 125.127704 27.4553155 124.919235 27.6483612 122.90967 29.5075971 121.200601 30.2329241 118.821051 30.2329241 115.872438 30.2329241 113.832824 28.7785218 113.012095 26.1171154L130.870927 26.1171154C131.158276 26.1171154 131.400551 25.8940821 131.42121 25.6091991 131.473796 24.8969918 131.522627 24.1885328 131.522627 23.5794082 131.522627 16.656003 127.9749 8.56870127 117.974029 8.56870127zM151.20096 8.56907612C147.668258 8.46037078 145.055824 9.76670899 143.21341 12.6998787L143.21341 9.61864483C143.21341 9.31314537 142.965501 9.06762125 142.66125 9.06762125L135.094393 9.06762125C134.788263 9.06762125 134.542233 9.31314537 134.542233 9.61864483L134.542233 36.251451C134.542233 36.5550762 134.788263 36.8006004 135.094393 36.8006004L142.66125 36.8006004C142.965501 36.8006004 143.21341 36.5550762 143.21341 36.251451L143.21341 26.4136185C143.21341 20.6316194 145.829601 17.5728762 150.77651 17.5728762L151.174667 17.5728762C151.480797 17.5728762 151.726828 17.325478 151.726828 17.0218527L151.726828 9.12009968C151.726828 8.82584561 151.493944 8.58219572 151.20096 8.56907612M166.088266 19.631343L165.243122 19.3427116C163.077675 18.6098877 161.034305 17.9201711 161.034305 16.8724766 161.034305 16.0778032 161.890718 15.5867549 163.269241 15.5867549 165.059068 15.5867549 167.588867 16.4657687 170.208813 17.9951403 170.338401 18.0682353 170.48865 18.0907261 170.63514 18.0513671 170.779754 18.0120084 170.901831 17.9145484 170.973199 17.7871008L173.861714 12.5654964C173.998815 12.3180981 173.92369 12.0032275 173.685172 11.8439179 170.723411 9.85348583 166.884579 8.66709833 163.419489 8.66709833 157.249938 8.66709833 153.106854 12.2843619 153.106854 17.7664843 153.106854 23.1230332 157.334452 25.0853518 161.464389 26.2961044L162.474806 26.5978554C164.689084 27.2463389 166.600987 27.810482 166.600987 28.9481396 166.600987 30.1345271 165.169876 30.3837996 163.966016 30.3837996 161.530123 30.3837996 158.581509 29.2630101 155.87517 27.3100627 155.751216 27.2219739 155.600968 27.1807409 155.45072 27.2126027 155.30235 27.2407162 155.170884 27.3269307 155.090125 27.4543784L151.852285 32.4210875C151.696403 32.6591148 151.748989 32.9777338 151.972483 33.1557856 155.366206 35.8284373 159.554364 37.2997078 163.768815 37.2997078 170.505552 37.2997078 174.526559 33.8811126 174.526559 28.0522577 174.526559 22.4389393 169.033124 20.609691 166.088266 19.631343M191.842433 29.7877946C188.411149 29.7877946 185.922669 26.9277197 185.922669 22.8831317 185.922669 18.9435006 188.411149 16.0815517 191.842433 16.0815517 195.245548 16.0815517 197.812907 19.0072244 197.812907 22.9843402 197.812907 26.9277197 195.301889 29.7877946 191.842433 29.7877946M193.784387 8.56963837C190.670501 8.56963837 188.118166 9.66793707 186.020331 11.9151387L186.020331 9.61733286C186.020331 9.31370764 185.7743 9.0663093 185.468169 9.0663093L177.901314 9.0663093C177.595184 9.0663093 177.349153 9.31370764 177.349153 9.61733286L177.349153 44.2024963C177.349153 44.5061216 177.595184 44.7535199 177.901314 44.7535199L185.468169 44.7535199C185.7743 44.7535199 186.020331 44.5061216 186.020331 44.2024963L186.020331 34.1847379C188.189534 36.3044918 190.687404 37.2997078 193.784387 37.2997078 200.096673 37.2997078 206.485963 32.3817287 206.485963 22.8831317 206.485963 13.4876175 200.096673 8.56963837 193.784387 8.56963837M217.923015 2.14290422L209.956123 2.14290422C209.649994 2.14290422 209.403963 2.39030256 209.403963 2.69392778L209.403963 9.40367067C209.403963 9.7072959 209.649994 9.95469424 209.956123 9.95469424L217.923015 9.95469424C218.227266 9.95469424 218.475176 9.7072959 218.475176 9.40367067L218.475176 2.69392778C218.475176 2.39030256 218.227266 2.14290422 217.923015 2.14290422M217.722997 12.3229711L210.156142 12.3229711C209.850011 12.3229711 209.60398 12.5722437 209.60398 12.8758689L209.60398 36.2512637C209.60398 36.5548888 209.850011 36.8022872 210.156142 36.8022872L217.722997 36.8022872C218.02725 36.8022872 218.275158 36.5548888 218.275158 36.2512637L218.275158 12.8758689C218.275158 12.5722437 218.02725 12.3229711 217.722997 12.3229711M238.631484 9.06687155L232.908921 9.06687155 232.908921 2.80881809C232.908921 2.50519284 232.661012 2.2577945 232.356759 2.2577945L224.789904 2.2577945C224.483775 2.2577945 224.237744 2.50519284 224.237744 2.80881809L224.237744 9.06687155 221.602771 9.06687155C221.29852 9.06687155 221.050611 9.31426989 221.050611 9.61789514L221.050611 16.0764913C221.050611 16.3801164 221.29852 16.6275148 221.602771 16.6275148L224.237744 16.6275148 224.237744 28.6994293C224.237744 34.453315 226.959107 37.2496659 232.557717 37.2496659 234.963559 37.2496659 236.952466 36.7361269 238.815539 35.6322056 238.982689 35.5309971 239.084106 35.3510711 239.084106 35.1580253L239.084106 29.0967659C239.084106 28.9018461 238.982689 28.7219201 238.813661 28.6225859 238.650266 28.5232516 238.43804 28.5195032 238.269012 28.6132147 237.198497 29.1923517 236.032198 29.48848 234.796409 29.48848 233.438544 29.48848 232.908921 28.9187142 232.908921 27.4568148L232.908921 16.6275148 238.631484 16.6275148C238.935737 16.6275148 239.183645 16.3801164 239.183645 16.0764913L239.183645 9.61789514C239.183645 9.31426989 238.935737 9.06687155 238.631484 9.06687155M265.014815 9.06687155L242.259782 9.06687155C241.953652 9.06687155 241.707621 9.31426989 241.707621 9.61789514L241.707621 15.7297588C241.707621 16.0333838 241.953652 16.2826565 242.259782 16.2826565L254.358489 16.2826565 241.401492 30.5661622C241.309465 30.6654963 241.260635 30.800441 241.260635 30.9353855L241.260635 36.2507014C241.260635 36.5543266 241.504787 36.8017249 241.812795 36.8017249L265.014815 36.8017249C265.319067 36.8017249 265.566975 36.5543266 265.566975 36.2507014L265.566975 30.1388378C265.566975 29.8352125 265.319067 29.58594 265.014815 29.58594L252.420291 29.58594 265.424241 15.3043085C265.516267 15.2012259 265.566975 15.071904 265.566975 14.933211L265.566975 9.61789514C265.566975 9.31426989 265.319067 9.06687155 265.014815 9.06687155M272.253944 28.6491984C269.998347 28.6510741 268.170959 30.4784482 268.172834 32.7293983 268.174714 34.9803484 270.00586 36.8058483 272.261455 36.8021056 274.517051 36.8002256 276.346318 34.9728514 276.342568 32.7219013 276.340684 30.4709514 274.509539 28.6473258 272.253944 28.6491984"/>
</svg>
