<svg xmlns="http://www.w3.org/2000/svg" width="70.083" height="31.417" viewBox="0 0 70.083 31.417">
  <path id="Fill-47" d="M99.178,59.781a6.23,6.23,0,0,0-4.55,1.655A6.454,6.454,0,0,0,93,66.057V79.436a6.332,6.332,0,0,0,1.624,4.615,6.215,6.215,0,0,0,4.55,1.658,6.106,6.106,0,0,0,4.507-1.658,6.5,6.5,0,0,0,1.627-4.615V66.057a6.447,6.447,0,0,0-1.627-4.621A6.121,6.121,0,0,0,99.178,59.781Zm0-2.745c5.408,0,9.053,3.705,9.053,9.239V79.216c0,5.534-3.645,9.237-9.053,9.237-5.451,0-9.091-3.7-9.091-9.237V66.275C90.087,60.741,93.727,57.036,99.178,57.036Zm-17.93,0A1.752,1.752,0,0,1,83,58.822v28.15a1.457,1.457,0,1,1-2.914,0V60.653l-5.1,3.008a1.45,1.45,0,0,1-.731.219,1.3,1.3,0,0,1-1.377-1.31,1.483,1.483,0,0,1,.732-1.306l6.777-4.01A1.594,1.594,0,0,1,81.248,57.036Zm-15.052,0a1.562,1.562,0,0,1,1.5,1.526v28.1a1.753,1.753,0,0,1-1.763,1.789,1.734,1.734,0,0,1-1.5-.915L51.7,63.747V86.925a1.5,1.5,0,1,1-3.007,0v-28.1a1.736,1.736,0,0,1,3.265-.871L64.692,81.785V58.562A1.534,1.534,0,0,1,66.2,57.036Zm-26.549,0a1.533,1.533,0,0,1,1.5,1.526V86.925a1.5,1.5,0,1,1-3,0V58.562A1.533,1.533,0,0,1,39.647,57.036Z" transform="translate(-38.148 -57.036)" fill="#fffffe" fill-rule="evenodd"/>
</svg>

