<svg xmlns="http://www.w3.org/2000/svg" width="109" height="127" fill="#FFFFFF" viewBox="0 0 109 127">
  <path d="M34.5001639,61.3010189 C34.5001639,60.9430447 34.4180594,60.733539 34.3392392,60.6873488 C34.2357874,60.6246621 33.9779795,60.6329103 33.7628656,60.7500355 L30.9598185,62.2941086 L30.9598185,81.8028775 L32.5033828,80.9533073 C34.0190316,80.0064079 34.5001639,79.1403413 34.5001639,77.2894332 L34.5001639,61.3010189 Z M32.5838452,53.5757047 C35.74651,51.7429428 38.1505293,51.3470268 39.9239861,52.3780585 C41.5595075,53.3249579 42.3887629,55.3804226 42.3887629,58.4900141 L42.3887629,73.9967304 C42.3887629,79.9354728 39.4494223,84.7804969 33.8893065,88.0055639 L23.0712197,94.1571112 L23.0712197,58.9849094 L32.5838452,53.5757047 Z M61.9230618,44.0506218 L52.8767897,49.3427012 L52.8767897,54.930068 L60.0658582,50.7251084 L60.0658582,58.6104386 L52.8767897,62.8153983 L52.8767897,68.8861127 L61.9230618,63.595683 L61.9230618,71.4810132 L45.0210326,81.3690192 L45.0210326,46.0483488 L61.9230618,36.1636421 L61.9230618,44.0506218 Z M85.1898305,0 L85.1898305,57.8169567 L77.3045158,62.4046352 L77.3045158,13.7432397 L30.9548923,40.5896547 L30.9548923,49.5555061 L23.0712197,54.1547322 L23.0712197,35.9788811 L85.1898305,0 Z M0.901366787,71.8323887 L19.7788299,60.8589125 L19.7788299,68.7260965 L14.2811136,71.9198203 L14.2811136,99.2776269 L6.39744098,103.860357 L6.39744098,76.5025498 L0.901366787,79.6962735 L0.901366787,71.8323887 Z M33.3769746,93.6539677 L108.676639,49.6132439 L85.3261239,65.9414863 L85.3261239,108.560211 L54.2528608,126.572747 L23.0712197,108.560211 L23.0712197,99.6471487 L30.9729553,95.0644192 L30.9729553,103.952737 L54.2791342,117.369346 L77.4243884,103.952737 L77.4243884,71.4661664 L33.3769746,102.266794 L33.3769746,93.6539677 Z"/>
</svg>
