<?xml version="1.0" encoding="UTF-8"?>
<svg width="209px" height="97px" viewBox="0 0 209 97" version="1.1" xmlns="http://www.w3.org/2000/svg" xmlns:xlink="http://www.w3.org/1999/xlink">
    <!-- Generator: Sketch 52.6 (67491) - http://www.bohemiancoding.com/sketch -->
    <title>Twentyseven_Logo</title>
    <desc>Created with Sketch.</desc>
    <defs>
        <polygon id="path-1" points="0.130808511 0.103411765 57.5742553 0.103411765 57.5742553 29.9258824 0.130808511 29.9258824"></polygon>
        <polygon id="path-3" points="0.130808511 0.103411765 57.5742553 0.103411765 57.5742553 29.9258824 0.130808511 29.9258824"></polygon>
        <polygon id="path-5" points="0.0739285714 0.64875 68.4011786 0.64875 68.4011786 44.7620253 0.0739285714 44.7620253"></polygon>
        <polygon id="path-7" points="0.0739285714 0.64875 68.4011786 0.64875 68.4011786 44.7620253 0.0739285714 44.7620253"></polygon>
    </defs>
    <g id="Page-1" stroke="none" stroke-width="1" fill="none" fill-rule="evenodd">
        <g id="Twentyseven_Logo">
            <path d="M118.921258,51.1518129 C118.921258,60.0642635 121.950179,63 128.697066,63 C130.290479,63 131.778622,62.3465263 133,61.6416559 L133,55.0102444 C131.99036,55.7714066 131.087186,56.3685885 129.652875,56.3685885 C126.731616,56.3685885 126.784252,53.1073389 126.784252,51.1518129 L126.784252,42.3482745 L133,42.3482745 L133,35.716863 L126.784252,35.716863 L126.784252,28 L118.921258,28 L118.921258,35.716863 L116,35.716863 L116,42.3482745 L118.921258,42.3482745 L118.921258,51.1518129" id="Fill-1" fill="#FFFFFF"></path>
            <path d="M154.552938,36 C152.796324,40.2124141 150.712353,45.2545839 148.901386,49.6878503 L143.25107,36 L134.801537,36 L144.732208,59.6062388 C144.355438,60.9513165 142.645767,65.5467907 142.058994,67.1189595 L141.862579,67.6255472 L141.852697,67.6255472 C140.092377,72.2247647 138.003465,78.487237 136.133203,83.2524056 L130.413709,67.6255472 L122,67.6255472 L133.494577,95 L138.828653,95 L149.012564,70.5066089 L149.042212,70.5178386 L149.989696,68.0722428 L163,36 L154.552938,36" id="Fill-2" fill="#FFFFFF"></path>
            <path d="M84.8324471,37.9502121 L84.9157307,37.9502121 C85.0651512,37.9502121 85.2145716,37.9163983 85.349295,37.8512754 C85.506064,37.7748812 85.6812044,37.7323008 85.8685924,37.7385626 C86.3242024,37.7510862 86.711226,38.0504013 86.8741188,38.4636814 C86.7026526,38.052906 86.3082806,37.7611051 85.8440973,37.7611051 C85.6763054,37.7611051 85.5170869,37.7986761 85.3750149,37.8650514 C85.2292687,37.9351838 85.0712749,37.9740071 84.9096069,37.9740071 L84.8410204,37.9740071 C84.6756781,37.9740071 84.5421795,37.8374994 84.5421795,37.6696826 L84.5421795,37.6634207 C84.5532023,37.822471 84.6756781,37.9502121 84.8324471,37.9502121 Z M86.9561776,38.8794663 C86.953728,38.8080816 86.9365814,38.7417063 86.9218843,38.6740786 C86.9341319,38.7329397 86.9598518,38.785539 86.9623014,38.8456525 C86.9623014,38.8569238 86.9561776,38.8669427 86.9561776,38.8794663 Z M82.7062672,20.785309 C85.7522404,20.785309 87.601625,22.1766856 88.0364141,24.7891172 L77.4851237,24.7891172 C77.9738021,22.398354 79.7692974,20.785309 82.7062672,20.785309 Z M101.95089,47.3141389 L101.95089,63 L110,63 L110,47.3141389 C110,38.8606809 107.334927,35.1348975 99.7744952,35.1348975 C97.4364321,35.1348975 94.607241,36.0804324 92.5398494,38.1380668 L92.5398494,35.5231304 L84.5421795,35.5231304 L84.5421795,35.521878 L83.1582029,35.521878 C80.500478,35.5005878 77.3222309,33.2287993 77.3222309,30.0177376 L96.4676485,30.0177376 L96.4676485,28.1830241 C96.4676485,19.9512345 91.1913908,14 82.7062672,14 C74.2211435,14 69,20.0626949 69,28.1830241 C69,36.3021009 74.3840363,42.3096918 83.1961704,42.3096918 C83.2280141,42.3096918 83.2574083,42.3084394 83.2880272,42.3084394 C83.289252,42.3084394 83.2917015,42.3084394 83.2917015,42.3084394 L84.5348309,42.2909063 L84.5348309,63 L92.5398494,63 L92.5398494,47.3141389 C92.5398494,43.1437663 94.4443482,41.3078004 97.7083284,41.3078004 C100.86208,41.3078004 101.95089,43.1437663 101.95089,47.3141389 Z" id="Fill-3" fill="#FFFFFF" fill-rule="nonzero"></path>
            <path d="M103.650356,77.6723291 C104.149822,75.3064809 105.978292,73.7110816 108.972598,73.7110816 C112.077758,73.7110816 113.962278,75.0872373 114.405694,77.6723291 L103.650356,77.6723291 Z M108.972598,67 C100.323488,67 95,72.9963725 95,81.0291086 C95,89.0581287 100.489146,95 109.472064,95 C115.737189,95 119.120107,92.9091351 121.337189,89.9388188 L115.848043,84.9333776 C114.572598,87.243486 112.133808,88.2889184 109.472064,88.2889184 C106.75427,88.2889184 103.483452,86.0345499 103.483452,82.8437514 L123,82.8437514 L123,81.0291086 C123,72.8861314 117.621708,67 108.972598,67 Z" id="Fill-4" fill="#FFFFFF" fill-rule="nonzero"></path>
            <g id="Group-8" transform="translate(151.000000, 67.000000)">
                <g id="Fill-5-Clipped">
                    <mask id="mask-2" fill="white">
                        <use xlink:href="#path-1"></use>
                    </mask>
                    <g id="path-1"></g>
                    <path d="M8.70123404,10.7467059 C9.19608511,8.38729412 11.0088936,6.79623529 13.9742979,6.79623529 C17.050766,6.79623529 18.9191064,8.16864706 19.3584255,10.7467059 L8.70123404,10.7467059 Z M13.9742979,0.103411765 C5.40510638,0.103411765 0.130808511,6.08347059 0.130808511,14.0943529 C0.130808511,22.1015294 5.57046809,28.0272353 14.4691489,28.0272353 C20.676383,28.0272353 24.0280426,25.9420588 26.2258723,22.9798235 L20.7862128,17.988 C19.5225532,20.2918235 17.1062979,21.3344118 14.4691489,21.3344118 C11.7777021,21.3344118 8.53587234,19.0861765 8.53587234,15.9040588 L27.8733191,15.9040588 L27.8733191,14.0943529 C27.8733191,5.97352941 22.5434894,0.103411765 13.9742979,0.103411765 Z" id="Fill-5" fill="#FFFFFF" fill-rule="nonzero" mask="url(#mask-2)"></path>
                </g>
                <g id="Fill-7-Clipped">
                    <mask id="mask-4" fill="white">
                        <use xlink:href="#path-3"></use>
                    </mask>
                    <g id="path-1"></g>
                    <path d="M47.2465532,0.103411765 C44.8845957,0.103411765 42.0277872,1.03605882 39.9397872,3.06564706 L39.9397872,0.487588235 L31.8099149,0.487588235 L31.8099149,27.5887059 L39.9397872,27.5887059 L39.9397872,12.1178824 C39.9397872,8.00435294 41.8636596,6.19341176 45.1597872,6.19341176 C48.3460851,6.19341176 49.4431489,8.00435294 49.4431489,12.1178824 L49.4431489,27.5887059 L52.4233617,27.5887059 C52.519617,27.6381176 52.5887234,27.7369412 52.5887234,27.8518235 L52.5887234,27.9358235 C52.5887234,28.0877647 52.5554043,28.2372353 52.49,28.3731176 C52.4147234,28.53 52.372766,28.7091176 52.3789362,28.8956471 C52.3949787,29.4910588 52.8774894,29.9765294 53.4722979,30 C54.1201702,30.0222353 54.6532766,29.5058824 54.6532766,28.8647647 C54.6532766,28.6955294 54.6162553,28.5361765 54.549617,28.3916471 C54.4817447,28.2446471 54.4422553,28.0852941 54.4422553,27.9222353 L54.4422553,27.8518235 C54.4422553,27.7369412 54.5113617,27.6381176 54.607617,27.5887059 L57.5742553,27.5887059 L57.5742553,12.1178824 C57.5742553,3.77964706 54.8828085,0.103411765 47.2465532,0.103411765" id="Fill-7" fill="#FFFFFF" mask="url(#mask-4)"></path>
                </g>
            </g>
            <path d="M78.7137356,75.9722456 C78.7137356,74.2110132 80.5430039,73.8813244 81.4569961,73.8813244 C83.2284981,73.8813244 85.7997433,75.3674029 87.2862644,77.2389447 L92.7715019,71.9540082 C89.5147625,68.7612323 85.4582798,67 81.4569961,67 C77.970475,67 71,69.20247 71,75.6425568 C71,81.0365632 76.2567394,82.85357 80.7715019,84.1748041 C81.9717587,84.5032535 85.9139923,84.6135629 85.2284981,86.7057235 C84.9717587,87.4493825 83.6444159,88.1422248 82.0051348,88.1521402 L78.9293967,88.1521402 L78.9293967,90.3186667 C78.9293967,90.4847506 79.0693196,90.6198486 79.2426187,90.6198486 L79.3145058,90.6198486 C79.4839538,90.6198486 79.6495507,90.5801868 79.8035944,90.5120181 C79.9537869,90.4450888 80.1206675,90.4091452 80.2952503,90.4091452 C80.9640565,90.4091452 81.5032092,90.9433403 81.478819,91.591563 C81.4557125,92.1889691 80.9486521,92.671108 80.3286264,92.68846 C80.1335045,92.6934177 79.9486521,92.6525165 79.7856226,92.5756717 C79.6431322,92.5112213 79.4865212,92.4777566 79.3286264,92.4777566 L79.2426187,92.4777566 C79.0693196,92.4777566 78.9293967,92.6116152 78.9293967,92.7789385 L78.9293967,95 L82.0051348,95 C88.1463415,94.8252401 93,91.717985 93,86.2644859 C93,77.6789429 78.7137356,79.2195565 78.7137356,75.9722456" id="Fill-9" fill="#FFFFFF"></path>
            <g id="Group-13">
                <g id="Fill-10-Clipped">
                    <mask id="mask-6" fill="white">
                        <use xlink:href="#path-5"></use>
                    </mask>
                    <g id="path-3"></g>
                    <path d="M55.432875,30.015 L50.7815357,14.86 L44.8167321,14.86 L40.166625,29.95875 L35.4598393,14.86 L27.142875,14.86 L37.4854821,42.28375 L42.8477679,42.28375 C44.4335357,37.9525 46.0759821,33.6225 47.7726429,29.015 L52.8059464,42.28375 L58.1140179,42.28375 L68.4011786,14.86 L60.1384286,14.86 L55.432875,30.015" id="Fill-10" fill="#FFFFFF" mask="url(#mask-6)"></path>
                </g>
                <g id="Fill-12-Clipped">
                    <mask id="mask-8" fill="white">
                        <use xlink:href="#path-7"></use>
                    </mask>
                    <g id="path-3"></g>
                    <path d="M32.5581429,0.64875 L0,0.64875 L0,3.10875 C0.0197142857,3.2575 0.140464286,3.3725 0.292017857,3.3725 L0.374571429,3.3725 C0.526125,3.3725 0.675214286,3.34 0.811982143,3.27375 C0.968464286,3.1975 1.14589286,3.155 1.33317857,3.16125 C1.92460714,3.1775 2.41130357,3.665 2.43225,4.26625 C2.45689286,4.92125 1.94185714,5.46 1.30114286,5.46 C1.13233929,5.46 0.973392857,5.4225 0.829232143,5.355 C0.682607143,5.2875 0.523660714,5.24625 0.361017857,5.24625 L0.292017857,5.24625 C0.140464286,5.24625 0.0197142857,5.36375 0,5.51125 L0,8.03125 L11.8741607,8.03125 L11.8741607,42.28375 L15.0925179,42.28375 C15.2391429,42.30375 15.3537321,42.42625 15.3537321,42.58 L15.3537321,42.665 C15.3537321,42.81875 15.3204643,42.97125 15.2563929,43.11 C15.18,43.27 15.1393393,43.45 15.1442679,43.64125 C15.1615179,44.24375 15.6432857,44.73875 16.2384107,44.76125 C16.8852857,44.785 17.4188036,44.26 17.4188036,43.60875 C17.4188036,43.4375 17.3818393,43.275 17.3153036,43.1275 C17.2475357,42.9775 17.2081071,42.81625 17.2081071,42.65125 L17.2081071,42.58 C17.2081071,42.42625 17.3226964,42.30375 17.4705536,42.28375 L20.6839821,42.28375 L20.6839821,8.03125 L32.5581429,8.03125 L32.5581429,0.64875" id="Fill-12" fill="#FFFFFF" mask="url(#mask-8)"></path>
                </g>
            </g>
        </g>
    </g>
</svg>