<svg xmlns="http://www.w3.org/2000/svg" width="350" height="51" fill="#FFFFFF" viewBox="0 0 350 51">
  <path d="M71.8432143 36.3739286L60.8721429 36.3739286 60.8721429 30.0717857 69.445 30.0717857C69.6941125 30.0684639 69.8943076 29.8655633 69.8942857 29.6164286L69.8942857 22.4096429C69.8943076 22.1605082 69.6941125 21.9576075 69.445 21.9542857L60.8721429 21.9542857 60.8721429 15.6582143 71.2421429 15.6582143C71.48891 15.6549454 71.6881597 15.4556955 71.6914286 15.2089286L71.6914286 8.00214286C71.6914504 7.75300816 71.4912554 7.55010751 71.2421429 7.54678571L53.2282143 7.54678571C53.1079968 7.54678571 52.9927895 7.59494259 52.9083553 7.68051773 52.8239212 7.76609288 52.777304 7.8819364 52.7788484 8.00214286L52.7788484 44.03C52.7788484 44.2781336 52.9800806 44.4792857 53.2282143 44.4792857L71.8432143 44.4792857C72.0913481 44.4792857 72.2925 44.2781336 72.2925 44.03L72.2925 36.8232143C72.2925 36.5750806 72.0913481 36.3739286 71.8432143 36.3739286M45.7239286 7.54677126L37.6428571 7.54677126C37.4560722 7.54573414 37.2875883 7.65885906 37.2178571 7.83214286L29.6892857 26.3803571 25.1539286 15.0632143C25.0850256 14.8919811 24.9195709 14.7792801 24.735 14.7778571L21.5414286 14.7778571C21.3573659 14.7808942 21.1927189 14.893045 21.1225 15.0632143L16.5871429 26.3742857 9.10714286 7.83214286C9.03741165 7.65885906 8.86892781 7.54573414 8.68214286 7.54677126L.607142857 7.54677126C.460081144 7.54817698.322745506 7.62050925.238407378 7.74099232.154069248 7.86147533.133113512 8.0152736.182142857 8.15392857L14.6260714 44.2C14.6962904 44.3701693 14.8609374 44.4823201 15.045 44.4853571L16.9392857 44.4853571C17.1238566 44.4839342 17.2893113 44.3712332 17.3582143 44.2L23.1382143 29.8046429 28.9242857 44.2060714C28.995081 44.374923 29.1601223 44.4849506 29.3432143 44.4853571L31.2739286 44.4853571C31.4584995 44.4839342 31.6239541 44.3712332 31.6928571 44.2L46.1428571 8.16607143C46.1945328 8.02837471 46.1755426 7.87410402 46.0920156 7.7530503 46.0084885 7.63199664 45.8710015 7.55948872 45.7239286 7.55892857M99.705 36.3739286L88.74 36.3739286 88.74 30.0717857 97.3553571 30.0717857C97.6044697 30.0684639 97.8046647 29.8655633 97.8046429 29.6164286L97.8046429 22.4096429C97.8046647 22.1605082 97.6044697 21.9576075 97.3553571 21.9542857L88.74 21.9542857 88.74 15.6582143 99.1039286 15.6582143C99.2230864 15.6582143 99.3373641 15.6108789 99.4216215 15.5266215 99.505879 15.4423641 99.5532143 15.3280865 99.5532143 15.2089286L99.5532143 8.00214286C99.554839 7.8819364 99.508222 7.76609288 99.4237878 7.68051773 99.3393537 7.59494259 99.2241459 7.54678571 99.1039286 7.54678571L81.0960714 7.54678571C80.9758541 7.54678571 80.8606463 7.59494259 80.7762122 7.68051773 80.691778 7.76609288 80.645161 7.8819364 80.6467054 8.00214286L80.6467054 44.03C80.6467054 44.2781336 80.8479376 44.4792857 81.0960714 44.4792857L99.705 44.4792857C99.954135 44.4792857 100.157035 44.2791126 100.160357 44.03L100.160357 36.8232143C100.157035 36.5741017 99.954135 36.3739064 99.705 36.3739286M197.036071 7.62571429L189.792857 7.62571429C189.542737 7.62898424 189.34077 7.83095158 189.3375 8.08107143L189.3375 27.2182143 172.598571 7.70464286C172.511768 7.60405568 172.385362 7.54639696 172.2525 7.54678184L169.720714 7.54678184C169.601556 7.54678184 169.487279 7.59412106 169.403021 7.67837846 169.318764 7.76263587 169.271429 7.87691345 169.271429 7.99607143L169.271429 44.0603571C169.271429 44.3094918 169.471602 44.5123925 169.720714 44.5157143L176.915357 44.5157143C177.16447 44.5123925 177.364665 44.3094918 177.364643 44.0603571L177.364643 25.6396429 194.121786 44.3760714C194.205954 44.4725141 194.327709 44.5278571 194.455714 44.5278571L197.036071 44.5278571C197.156289 44.5278571 197.271497 44.4797003 197.355931 44.3941251 197.440365 44.30855 197.486982 44.1927065 197.485437 44.0725L197.485437 8.08107143C197.485437 7.83193673 197.285184 7.62903609 197.036071 7.62571429M122.485 25.7792857L133.984286 8.25107143C134.071746 8.10750959 134.071746 7.92713327 133.984286 7.78357143 133.908298 7.63617912 133.755454 7.54447286 133.589643 7.54670178L125.211071 7.54670178C125.055056 7.54535723 124.909782 7.62606546 124.828571 7.75928571L116.607857 20.7946429 116.607857 7.99607143C116.604535 7.74695883 116.401635 7.54670178 116.1525 7.54670178L108.963929 7.54670178C108.843722 7.54516118 108.727879 7.59177834 108.642303 7.67621248 108.556728 7.76064662 108.508571 7.87585399 108.508571 7.99607143L108.508571 44.03C108.508571 44.2814868 108.712441 44.4853699 108.963929 44.4853699L116.1525 44.4853699C116.40262 44.4820872 116.604587 44.2801198 116.607857 44.03L116.607857 31.3953571 125.338571 44.285C125.422341 44.4108709 125.563804 44.4861657 125.715 44.4853699L134.615714 44.4853699C134.785607 44.4848185 134.940666 44.3884943 135.016429 44.2364286 135.104217 44.0951456 135.104217 43.9162829 135.016429 43.775L122.485 25.7792857zM227.678571 26.0160714C227.678571 31.0067857 224.533571 36.3678571 217.6425 36.3678571L214.570357 36.3678571 214.570357 15.6582143 217.6425 15.6582143C224.533571 15.6582143 227.678571 21.0253571 227.678571 26.0160714M217.612143 7.54678571L206.896071 7.54678571C206.646936 7.54678571 206.444036 7.74695883 206.440714 7.99607143L206.440714 44.03C206.443984 44.2801198 206.645952 44.4820872 206.896071 44.4853571L217.612143 44.4853571C226.476429 44.4853571 236.020714 38.7053571 236.020714 26.0160714 236.020714 13.3267857 226.464286 7.54678571 217.612143 7.54678571M160.467857 36.3739286L149.502857 36.3739286 149.502857 30.0717857 158.075714 30.0717857C158.324827 30.0684639 158.525022 29.8655633 158.525 29.6164286L158.525 22.4096429C158.525022 22.1605082 158.324827 21.9576075 158.075714 21.9542857L149.502857 21.9542857 149.502857 15.6582143 159.860714 15.6582143C160.109849 15.6582364 160.31275 15.4580412 160.316071 15.2089286L160.316071 8.00214286C160.316071 7.75065603 160.112201 7.54670446 159.860714 7.54670446L141.858929 7.54670446C141.737662 7.54513562 141.620879 7.5925805 141.535122 7.67833688 141.449366 7.76409319 141.401921 7.88087627 141.40349 8.00214286L141.40349 44.03C141.40349 44.1502174 141.451728 44.2654248 141.537303 44.3498589 141.622879 44.4342931 141.738722 44.4809102 141.858929 44.4793659L160.467857 44.4793659C160.715991 44.4793659 160.917143 44.2781336 160.917143 44.03L160.917143 36.8232143C160.917143 36.5750806 160.715991 36.3739286 160.467857 36.3739286M349.435 41.1339286L338.542857 41.1339286C338.45129 41.1338702 338.376127 41.206348 338.372857 41.2978571L338.372857 44.3335714C338.376127 44.4250806 338.45129 44.4975584 338.542857 44.4975L349.435 44.4975C349.479519 44.49915 349.522792 44.4826102 349.55486 44.4516869 349.586928 44.4207637 349.605 44.3781207 349.605 44.3335714L349.605 41.2857143C349.605 41.2411651 349.586928 41.198522 349.55486 41.1675988 349.522792 41.1366755 349.479519 41.1201357 349.435 41.1217857M244.896956 14.4560714C244.891952 13.4742419 245.099063 12.5028927 245.504286 11.6085714 245.875938 10.7684036 246.422357 10.017077 247.107143 9.40464286 247.785638 8.80829087 248.567575 8.34118691 249.414286 8.02642857 250.290905 7.69471206 251.221313 7.52797965 252.158571 7.53464286 253.303208 7.52331952 254.435197 7.77464181 255.4675 8.26928571 256.455471 8.74329514 257.310687 9.45458394 257.956786 10.3396429L254.720714 12.665C254.451049 12.2406207 254.07404 11.8950285 253.627857 11.6632143 253.175777 11.4220955 252.67093 11.2969266 252.158571 11.2989286 251.30187 11.2879918 250.47295 11.6026341 249.839286 12.1792857 249.182099 12.75002 248.816465 13.5860731 248.843571 14.4560714 248.82179 15.3337883 249.185692 16.1769749 249.839286 16.7632143 250.464626 17.3574071 251.295971 17.6860281 252.158571 17.68 252.670092 17.6811505 253.174263 17.558233 253.627857 17.3217857 254.074973 17.0940776 254.452487 16.7501207 254.720714 16.3260714L257.956786 18.6210714C257.329982 19.5175907 256.480412 20.2353315 255.491786 20.7035714 253.297892 21.7304519 250.75297 21.6878872 248.594643 20.5882143 246.326785 19.38873 244.920456 17.0214103 244.951786 14.4560714M259.93 21.165L259.93 7.80785714 263.870357 7.80785714 263.870357 11.0014286C264.103272 9.99344332 264.644413 9.0830527 265.418571 8.39678571 266.028774 7.84786907 266.814208 7.53369541 267.634643 7.51035714 268.423289 7.48955163 269.205634 7.65600792 269.9175 7.99607143L269.207143 11.5478571C268.569761 11.2567562 267.873529 11.1175099 267.173214 11.1410714 266.155574 11.0780071 265.188774 11.591913 264.671786 12.4707143 264.1375 13.3571429 263.870357 14.6928571 263.870357 16.4778571L263.870357 21.1467857 259.93 21.165zM274.246429 13.3085714L280.014286 13.3085714C279.956006 12.6398818 279.596172 12.0341983 279.036786 11.6632143 278.498796 11.2998317 277.864571 11.1053359 277.215357 11.1046429 276.569498 11.1100129 275.938227 11.2972901 275.393929 11.645 274.803328 12.0168789 274.397528 12.6211676 274.276786 13.3085714M271.204643 18.1232143C269.952434 15.8560575 269.952434 13.1046568 271.204643 10.8375 271.804467 9.80896375 272.679098 8.96797175 273.730357 8.40892857 274.804839 7.83859284 276.005026 7.54637346 277.221429 7.55892857 278.132989 7.55632277 279.036297 7.7316224 279.880714 8.075 281.547194 8.73223949 282.866332 10.0513776 283.523571 11.7178571 283.886844 12.6312316 284.068333 13.6067339 284.057857 14.5896429 284.057857 14.9417857 284.057857 15.3546429 284.003214 15.8039286L274.191786 15.8039286C274.274188 16.509222 274.689582 17.132313 275.308929 17.4796429 275.963134 17.879664 276.715693 18.0898761 277.4825 18.0867857 278.046986 18.0909849 278.606544 17.9815509 279.127857 17.765 279.628236 17.5720342 280.065361 17.244191 280.390714 16.8178571L283.280714 18.7971429C282.649617 19.7237764 281.748764 20.4338605 280.700357 20.8310714 279.583073 21.2706389 278.391668 21.4911931 277.191071 21.4807143 275.973723 21.495065 274.772611 21.2005313 273.7 20.6246429 272.643684 20.0559658 271.768492 19.2018124 271.174286 18.1596429M290.305357 12.1975C289.660481 12.7799824 289.292456 13.6083271 289.292456 14.4773214 289.292456 15.3463157 289.660481 16.1746604 290.305357 16.7571429 290.942096 17.3420104 291.778351 17.6613078 292.642857 17.6496429 293.480044 17.6590178 294.288753 17.3459693 294.901429 16.7753571 295.52232 16.1707614 295.872537 15.3409126 295.872537 14.4742857 295.872537 13.6076588 295.52232 12.77781 294.901429 12.1732143 294.288753 11.6026021 293.480044 11.2895536 292.642857 11.2989286 291.783908 11.2941688 290.955103 11.6152764 290.323571 12.1975M285.199286 14.4803571C285.201161 13.4894793 285.407867 12.5096887 285.806429 11.6025 286.158104 10.7648995 286.683762 10.0115949 287.348571 9.3925 287.986526 8.81207877 288.722473 8.34954265 289.522143 8.02642857 290.313623 7.69973119 291.161248 7.53061871 292.0175 7.52857143 292.407012 7.53237864 292.795291 7.57303602 293.177143 7.65 293.680251 7.76006929 294.164873 7.9420583 294.616071 8.19035714 295.129993 8.44918147 295.572108 8.83081872 295.903214 9.30142857L295.903214 7.82 299.819286 7.82 299.819286 21.1771429 295.903214 21.1771429 295.903214 19.6592857C295.474844 20.2727919 294.862483 20.7341891 294.154643 20.9767857 293.47619 21.2582682 292.751768 21.4126195 292.0175 21.4322575 290.878396 21.4368704 289.75668 21.1527859 288.757143 20.6064286 287.711873 20.0369884 286.837785 19.1985352 286.225357 18.1778571 285.553204 17.0698339 285.208024 15.7943482 285.229643 14.4985714"/>
  <polygon points="301.525 10.965 301.525 7.82 303.948 7.82 303.948 2.702 307.888 2.702 307.888 7.82 310.693 7.82 310.693 10.965 307.888 10.965 307.888 21.165 303.948 21.165 303.948 10.965"/>
  <path d="M312.362857,7.82607143 L316.321429,7.82607143 L316.321429,21.1832143 L312.381071,21.1832143 L312.362857,7.82607143 Z M312.575357,4.52928571 C312.100462,4.10779533 311.832331,3.50062321 311.840714,2.86571429 C311.828465,2.23350894 312.0976,1.62851042 312.575357,1.21428571 C313.049134,0.77266493 313.676382,0.533091142 314.323929,0.546428571 C314.960803,0.532193414 315.57705,0.772573348 316.036071,1.21428571 C316.499125,1.63458385 316.758085,2.23439642 316.746429,2.85964286 C316.755501,3.48966065 316.497415,4.09406768 316.036071,4.52321429 C315.580395,4.9721645 314.963535,5.21934623 314.323929,5.20928571 C313.673606,5.21901451 313.045546,4.97258813 312.575357,4.52321429"/>
  <polygon points="317.457 7.82 321.676 7.82 324.785 16.114 327.875 7.82 332.131 7.82 326.473 21.165 323.085 21.165"/>
  <path d="M336.223571 13.3085714L341.985357 13.3085714C341.927078 12.6398818 341.567243 12.0341983 341.007857 11.6632143 340.470191 11.2991552 339.835754 11.1045943 339.186429 11.1046428 338.540667 11.1106661 337.909573 11.297891 337.365 11.645 336.772847 12.0141518 336.368092 12.6201781 336.253929 13.3085714M333.175714 18.1232143C331.923505 15.8560575 331.923505 13.1046568 333.175714 10.8375 333.775538 9.80896375 334.650169 8.96797175 335.701429 8.40892857 336.775911 7.83859284 337.976097 7.54637346 339.1925 7.55892857 340.10406 7.55632278 341.007368 7.7316224 341.851786 8.075 343.518265 8.73223949 344.837403 10.0513776 345.494643 11.7178571 345.857915 12.6312316 346.039404 13.6067339 346.028929 14.5896429 346.028929 14.9417857 346.028929 15.3546429 345.974286 15.8039286L336.168929 15.8039286C336.246455 16.5110036 336.663205 17.1361276 337.286071 17.4796429 337.938133 17.879467 338.688696 18.0897087 339.453571 18.0867857 340.019991 18.0906453 340.581467 17.9812399 341.105 17.765 341.603561 17.5687647 342.039874 17.2415301 342.367857 16.8178571L345.251786 18.7971429C344.622741 19.7256882 343.721215 20.4363027 342.671429 20.8310714 341.554145 21.2706389 340.362739 21.4911931 339.162143 21.4807143 337.944856 21.494536 336.743873 21.2000342 335.671071 20.6246429 334.614755 20.0559658 333.739563 19.2018124 333.145357 18.1596429M250.021429 35.3114286C249.376552 35.893911 249.008527 36.7222557 249.008527 37.59125 249.008527 38.4602443 249.376552 39.288589 250.021429 39.8710714 250.651701 40.450699 251.478387 40.7696563 252.334643 40.7635714 253.175561 40.773578 253.988285 40.4606574 254.605357 39.8892857 255.251338 39.3051398 255.604922 38.4645425 255.570714 37.5942857 255.606156 36.7185197 255.25282 35.8718461 254.605357 35.2810714 253.986033 34.714033 253.174292 34.4036615 252.334643 34.4128571 251.477675 34.4090304 250.651098 34.7301154 250.021429 35.3114286M244.897143 37.5942857C244.889437 36.605541 245.085791 35.6258374 245.473929 34.7164286 245.823458 33.8776481 246.349414 33.1239165 247.016071 32.5064286 247.653318 31.9250748 248.38944 31.4624281 249.189643 31.1403571 249.979188 30.8142843 250.824705 30.645181 251.678929 30.6425 252.070451 30.6462867 252.460746 30.6869425 252.844643 30.7639286 253.347751 30.8739979 253.832373 31.0559869 254.283571 31.3042857 254.796386 31.5647626 255.238135 31.9460837 255.570714 32.4153571L255.570714 30.9642857 259.486786 30.9642857 259.486786 44.3214286 255.570714 44.3214286 255.570714 42.7610714C255.140827 43.3731126 254.528993 43.8341129 253.822143 44.0785714 253.141752 44.3606491 252.415231 44.5150093 251.678929 44.5340096 250.541847 44.5378939 249.422281 44.2538249 248.424643 43.7082143 247.378203 43.1431092 246.503557 42.3062176 245.892857 41.2857143 245.220704 40.177691 244.875524 38.9022054 244.897143 37.6064286M265.776786 37.5517857C265.75018 38.4100196 266.075634 39.2418158 266.677606 39.8541082 267.279579 40.4664005 268.105724 40.8059442 268.964286 40.7939286 269.803088 40.7974658 270.608951 40.4676954 271.204643 39.8771429 271.8461 39.2766158 272.199711 38.4301602 272.176071 37.5517857 272.211538 36.6855533 271.862687 35.8478656 271.222857 35.2628571 270.604482 34.7042608 269.797512 34.4005623 268.964286 34.4128571 268.128454 34.3973215 267.32058 34.7139206 266.717857 35.2932143 266.094101 35.8758025 265.751245 36.6986573 265.776786 37.5517857M261.611786 37.6489286C261.603919 36.6560669 261.7938 35.6715742 262.170357 34.7528571 262.510348 33.9192237 263.018822 33.1647798 263.663929 32.5367857 264.283359 31.9440983 265.00821 31.4725334 265.801071 31.1464286 266.586899 30.8144627 267.431217 30.6431219 268.284286 30.6423639 269.112327 30.6383988 269.931114 30.8166665 270.6825 31.1646429 271.354763 31.4500562 271.913955 31.9494872 272.273214 32.5853571L272.273214 30.9642857 276.189286 30.9642857 276.189286 42.4271429C276.189286 45.2604762 275.529524 47.3875 274.21 48.8082143 272.890476 50.2289286 271.016429 50.9392857 268.587857 50.9392857 267.186462 50.9567929 265.810513 50.5642675 264.629286 49.81 263.472305 49.0817465 262.559034 48.0247201 262.006429 46.7742857L263.621429 45.985C264.356071 45.6267857 264.896429 45.3778571 265.230357 45.2139286 265.48115 45.8577046 265.940831 46.3986329 266.535714 46.75 267.141507 47.1382142 267.844113 47.3485753 268.563571 47.3571429 271.218809 47.3571429 272.447262 45.7745238 272.248929 42.6092857 271.896837 43.2472223 271.337922 43.7461772 270.664286 44.0239286 269.904502 44.3795559 269.07457 44.5600662 268.235714 44.5521429 265.899911 44.5521487 263.74114 43.3073272 262.571071 41.2857143 261.922719 40.182615 261.590813 38.9222121 261.611786 37.6428571M282.230357 36.4285714L287.998214 36.4285714C287.939406 35.7585065 287.577002 35.1522633 287.014643 34.7832143 286.477468 34.4181304 285.842708 34.2234705 285.193214 34.2246324 284.537022 34.2242665 283.894439 34.4117741 283.341429 34.765 282.75421 35.1392185 282.351091 35.7427953 282.230357 36.4285714M279.158214 41.2432143C277.906005 38.9760575 277.906005 36.2246568 279.158214 33.9575 279.757401 32.9305863 280.62959 32.0899218 281.677857 31.5289286 282.754149 30.9576064 283.956547 30.6653569 285.175 30.6789286 286.08656 30.6763228 286.989868 30.8516224 287.834286 31.195 288.645284 31.5236092 289.3838 32.0083895 290.007857 32.6217857 290.636528 33.2605454 291.131854 34.0179816 291.465 34.85 291.828853 35.7610873 292.010378 36.7347219 291.999286 37.7157143 291.999286 38.0678571 291.999286 38.4807143 291.944643 38.93L282.175714 38.93C282.256187 39.6360009 282.672115 40.2598933 283.292857 40.6057143 283.945048 41.0052422 284.695525 41.2154598 285.460357 41.2128571 286.027189 41.2147929 286.588681 41.1033202 287.111786 40.885 287.624032 40.6833033 288.068342 40.3400679 288.392857 39.8953571L291.264643 41.8928571C290.633546 42.8194907 289.732693 43.5295748 288.684286 43.9267857 287.566835 44.3657706 286.375544 44.5863038 285.175 44.5764286 283.955784 44.5902222 282.752845 44.2957528 281.677857 43.7203571 280.624555 43.1497125 279.751812 42.2958965 279.158214 41.2553571M293.960357 44.2789286L293.960357 30.9642857 297.906786 30.9642857 297.906786 32.9375C298.266851 32.2448106 298.821979 31.6727965 299.503571 31.2921429 300.188491 30.8911956 300.968505 30.6815143 301.762143 30.685 303.108409 30.61157 304.418 31.1385191 305.338214 32.1239286 306.196309 33.0832143 306.625357 34.4998809 306.625357 36.3739286L306.625357 44.3396429 302.678929 44.3396429 302.678929 37.2117857C302.736594 36.5080282 302.518938 35.8093505 302.071786 35.2628571 301.625708 34.8062839 301.002755 34.5668571 300.365714 34.6071429 298.720357 34.6071429 297.906786 35.5057143 297.906786 37.2967857L297.906786 44.3092857 293.960357 44.2789286zM308.628929 37.57C308.624388 36.5862819 308.83145 35.613091 309.236071 34.7164286 309.604268 33.8791899 310.146531 33.1299557 310.826786 32.5185714 311.503717 31.9200765 312.286072 31.4527225 313.133929 31.1403571 314.010193 30.8067038 314.940588 30.6379153 315.878214 30.6425 317.023303 30.633286 318.155267 30.8866797 319.187143 31.3832143 320.175114 31.8572237 321.03033 32.5685125 321.676429 33.4535714L318.440357 35.7789286C318.172276 35.3532248 317.794865 35.0072642 317.3475 34.7771429 316.89542 34.5360241 316.390572 34.4108552 315.878214 34.4128571 315.021513 34.4019204 314.192593 34.7165626 313.558929 35.2932143 312.901742 35.8639485 312.536108 36.7000017 312.563214 37.57 312.541433 38.4477169 312.905335 39.2909034 313.558929 39.8771429 314.184269 40.4713357 315.015614 40.7999566 315.878214 40.7939286 316.389735 40.795079 316.893905 40.6721616 317.3475 40.4357143 317.794616 40.2080061 318.17213 39.8640493 318.440357 39.44L321.676429 41.735C321.049625 42.6315192 320.200054 43.3492601 319.211429 43.8175 317.017535 44.8443804 314.472612 44.8018157 312.314286 43.7021429 311.214718 43.1352887 310.290968 42.2787202 309.642857 41.225 308.963223 40.13277 308.611318 38.8684394 308.628929 37.5821429"/>
  <polygon points="321.804 30.934 326.03 30.934 328.968 38.505 331.937 30.934 336.157 30.934 327.936 50.83 323.741 50.83 326.946 42.913"/>
</svg>
